<?xml version="1.0" encoding="utf-8"?>
<!-- Generator: Adobe Illustrator 16.0.3, SVG Export Plug-In . SVG Version: 6.00 Build 0)  -->
<!DOCTYPE svg PUBLIC "-//W3C//DTD SVG 1.1//EN" "http://www.w3.org/Graphics/SVG/1.1/DTD/svg11.dtd">
<svg version="1.1" id="Capa_1" xmlns="http://www.w3.org/2000/svg" xmlns:xlink="http://www.w3.org/1999/xlink" x="0px" y="0px"
	 width="134.47px" height="53.35px" viewBox="0 0 134.47 53.35" enable-background="new 0 0 134.47 53.35" xml:space="preserve">
<g>
	<path fill-rule="evenodd" clip-rule="evenodd" fill="#FEFEFE" d="M69.795,53.839c-21.375,0-42.75-0.001-64.126,0.011
		c-0.435,0-0.563-0.073-0.562-0.543C5.123,37.741,5.122,22.175,5.11,6.609c0-0.393,0.054-0.501,0.483-0.501
		C48.383,6.121,91.174,6.121,133.965,6.11c0.393,0,0.502,0.053,0.501,0.482c-0.015,15.585-0.016,31.171,0.004,46.757
		c0,0.493-0.173,0.496-0.549,0.496C112.546,53.838,91.171,53.839,69.795,53.839z"/>
	<path fill-rule="evenodd" clip-rule="evenodd" fill="#0073B8" d="M123.151,46.847c-2.057,1.084-4.255,1.748-6.527,2.178
		c-2.107,0.398-4.239,0.483-6.381,0.483c-27.151-0.007-54.303-0.002-81.454-0.007c-3.846-0.001-7.564-0.66-11.087-2.263
		c-0.108-0.049-0.214-0.105-0.321-0.158c-0.121-0.331,0.167-0.379,0.347-0.432c1.425-0.415,2.805-0.953,4.175-1.518
		c0.401-0.165,0.78-0.053,1.159,0.116c1.755,0.782,3.589,1.267,5.514,1.323c2.095,0.062,4.106-0.37,6.008-1.238
		c0.745-0.34,1.376-0.39,2.149-0.007c1.778,0.882,3.7,1.314,5.683,1.361c2.181,0.051,4.25-0.492,6.198-1.454
		c0.558-0.275,1.018-0.265,1.584-0.015c3.858,1.704,7.75,1.6,11.622,0.065c0.75-0.298,1.377-0.309,2.107,0.027
		c1.876,0.862,3.869,1.326,5.931,1.374c2.398,0.057,4.693-0.481,6.862-1.502c0.517-0.243,0.969-0.265,1.488-0.04
		c1.787,0.776,3.68,1.13,5.61,1.178c2.104,0.053,4.14-0.394,6.09-1.187c0.46-0.187,0.866-0.213,1.325-0.022
		c1.87,0.774,3.829,1.188,5.847,1.213c2.102,0.025,4.144-0.374,6.092-1.179c0.513-0.212,0.984-0.207,1.511-0.038
		c4.083,1.305,8.171,1.124,12.247-0.03c0.551-0.156,1.044-0.15,1.572,0.069c1.296,0.542,2.654,0.896,4.006,1.27
		C122.761,46.486,123.086,46.482,123.151,46.847z"/>
	<path fill-rule="evenodd" clip-rule="evenodd" fill="#A7CEED" d="M11.835,43.27c-0.791-0.866-1.641-1.688-2.149-2.772
		c0.485-0.229,0.987-0.064,1.47-0.022c3.083,0.267,6.13,0.035,9.109-0.773c1.279-0.347,2.43-0.396,3.729,0.026
		c3.776,1.228,7.568,1.17,11.293-0.312c0.455-0.181,0.887-0.148,1.346-0.007c2.213,0.681,4.465,1.106,6.797,1.034
		c1.657-0.051,3.267-0.335,4.816-0.916c0.708-0.266,1.375-0.256,2.109-0.089c4.1,0.937,8.203,1.133,12.29-0.092
		c0.415-0.124,0.829-0.12,1.248-0.03c2.296,0.494,4.617,0.8,6.966,0.816c1.988,0.014,3.96-0.189,5.881-0.731
		c0.519-0.146,1.014-0.164,1.536-0.035c4.083,1.002,8.168,0.992,12.25-0.006c0.506-0.124,0.985-0.095,1.478,0.048
		c3.851,1.121,7.704,1.096,11.552-0.009c0.524-0.15,1.009-0.132,1.527,0.026c3.921,1.202,7.852,1.188,11.776,0.024
		c0.58-0.171,1.116-0.197,1.702-0.03c2.578,0.734,5.215,1.081,7.894,1.007c1.138-0.031,2.276-0.137,3.41-0.263
		c0.229-0.025,0.533-0.171,0.633,0.219c-0.419,0.727-0.911,1.4-1.463,2.031c-3.236,0.455-6.43,0.145-9.578-0.637
		c-0.951-0.236-1.818-0.257-2.75,0.056c-1.777,0.597-3.633,0.848-5.497,0.862c-2.15,0.018-4.272-0.287-6.316-0.997
		c-0.511-0.177-0.997-0.22-1.525-0.078c-3.96,1.06-7.925,0.937-11.884-0.005c-0.525-0.125-1.009-0.115-1.528,0.04
		c-3.867,1.159-7.743,1.075-11.61-0.002c-0.55-0.153-1.029-0.14-1.563,0.086c-4.438,1.869-8.884,1.804-13.316-0.021
		c-0.464-0.191-0.859-0.199-1.319-0.006c-1.941,0.816-3.971,1.262-6.079,1.232c-1.959-0.027-3.862-0.424-5.675-1.166
		c-0.61-0.249-1.119-0.227-1.713,0.024c-1.956,0.826-4.001,1.284-6.133,1.268c-2.131-0.016-4.171-0.482-6.115-1.348
		c-0.437-0.194-0.814-0.21-1.261-0.04c-3.974,1.506-7.974,1.589-11.982,0.145c-0.524-0.188-0.978-0.181-1.496,0.047
		c-2.8,1.23-5.743,1.7-8.791,1.556C12.541,43.413,12.191,43.322,11.835,43.27z"/>
	<path fill-rule="evenodd" clip-rule="evenodd" fill="#2194D1" d="M11.835,43.27c0.109-0.18,0.284-0.12,0.433-0.104
		c3.362,0.367,6.571-0.207,9.648-1.57c0.351-0.155,0.648-0.177,1.023-0.036c4.149,1.559,8.29,1.503,12.406-0.135
		c0.299-0.119,0.546-0.137,0.851,0.006c2.209,1.031,4.536,1.547,6.977,1.456c2.02-0.075,3.957-0.559,5.794-1.39
		c0.458-0.206,0.812-0.149,1.237,0.026c2,0.824,4.083,1.274,6.249,1.24c2.042-0.032,4.001-0.489,5.871-1.311
		c0.316-0.139,0.579-0.172,0.905-0.025c2.68,1.209,5.496,1.69,8.421,1.454c1.805-0.146,3.542-0.62,5.195-1.359
		c0.45-0.201,0.847-0.235,1.319-0.095c2.437,0.729,4.935,1.008,7.47,0.853c1.558-0.096,3.091-0.389,4.575-0.89
		c0.32-0.107,0.616-0.117,0.933-0.036c2.437,0.618,4.908,0.919,7.424,0.819c1.684-0.066,3.339-0.322,4.962-0.771
		c0.384-0.106,0.724-0.102,1.104,0.031c2.191,0.766,4.457,1.127,6.772,1.08c2.089-0.043,4.132-0.422,6.114-1.087
		c0.359-0.121,0.688-0.146,1.048-0.045c2.99,0.83,6.036,1.164,9.138,1.051c0.44-0.017,0.887-0.291,1.331-0.02
		c-1.063,1.195-2.253,2.246-3.608,3.103c-0.239,0.029-0.474,0.021-0.712-0.037c-2.105-0.505-4.201-1.042-6.195-1.902
		c-0.473-0.204-0.904-0.199-1.393-0.046c-2.071,0.647-4.182,1.07-6.367,1.107c-2.113,0.035-4.148-0.341-6.115-1.078
		c-0.595-0.223-1.107-0.201-1.667,0.063c-1.128,0.532-2.31,0.927-3.543,1.112c-2.635,0.397-5.189,0.097-7.639-0.986
		c-0.073-0.032-0.149-0.06-0.218-0.1c-0.635-0.37-1.226-0.369-1.917-0.028c-2.111,1.042-4.371,1.413-6.716,1.243
		c-1.493-0.107-2.938-0.474-4.269-1.146c-0.897-0.452-1.625-0.388-2.52,0.059c-3.897,1.946-7.855,2.046-11.783,0.072
		c-0.965-0.485-1.806-0.6-2.814-0.08c-1.581,0.813-3.311,1.208-5.087,1.311c-1.496,0.086-2.953-0.178-4.361-0.684
		c-0.716-0.258-1.427-0.539-2.086-0.922c-0.467-0.271-0.886-0.238-1.358,0.004c-1.12,0.577-2.225,1.191-3.473,1.479
		c-2.401,0.554-4.73,0.341-7-0.604c-0.666-0.277-1.323-0.575-1.957-0.92c-0.411-0.225-0.784-0.208-1.193,0.009
		c-0.957,0.506-1.932,0.969-2.976,1.278c-2.872,0.852-5.62,0.472-8.289-0.784c-0.235-0.111-0.477-0.214-0.698-0.351
		c-0.475-0.292-0.915-0.256-1.415-0.011c-1.912,0.94-3.934,1.588-5.984,2.148c-0.196,0.053-0.395,0.061-0.594,0.076
		C13.889,45.104,12.833,44.225,11.835,43.27z"/>
	<path fill-rule="evenodd" clip-rule="evenodd" fill="#D9251D" d="M109.566,35.665c-1.552,0-3.011-0.012-4.469,0.009
		c-0.341,0.005-0.441-0.202-0.571-0.427c-1.328-2.304-2.666-4.604-3.978-6.917c-0.206-0.364-0.439-0.481-0.846-0.473
		c-1.322,0.025-2.645,0.026-3.966,0c-0.422-0.009-0.535,0.114-0.531,0.533c0.021,2.203-0.013,4.407,0.024,6.609
		c0.01,0.577-0.179,0.698-0.708,0.678c-1.04-0.039-2.083-0.026-3.124-0.003c-0.364,0.008-0.477-0.094-0.476-0.468
		c0.011-6.309,0.01-12.618,0.001-18.928c-0.001-0.331,0.077-0.445,0.429-0.443c3.686,0.018,7.371-0.002,11.056,0.034
		c1.267,0.013,2.509,0.259,3.651,0.855c1.73,0.902,2.372,2.465,2.53,4.29c0.078,0.898,0.035,1.797-0.196,2.682
		c-0.476,1.818-1.598,3.025-3.399,3.537c-0.514,0.146-0.411,0.291-0.209,0.617c1.527,2.466,3.043,4.938,4.562,7.41
		C109.408,35.36,109.459,35.467,109.566,35.665z"/>
	<path fill-rule="evenodd" clip-rule="evenodd" fill="#193782" d="M18.504,16.139c1.569,0.033,3.041,0.156,4.463,0.624
		c2.831,0.932,4.454,2.947,5.076,5.791c0.551,2.517,0.543,5.051-0.121,7.551c-0.762,2.865-2.569,4.734-5.464,5.481
		c-2.69,0.695-5.389,0.682-8.061-0.08c-2.613-0.746-4.304-2.486-5.046-5.078c-0.785-2.743-0.848-5.53-0.135-8.302
		c0.824-3.201,2.979-4.996,6.151-5.672C16.431,16.228,17.509,16.183,18.504,16.139z"/>
	<path fill-rule="evenodd" clip-rule="evenodd" fill="#0087C9" d="M15.088,45.801c0.76-0.413,1.62-0.526,2.43-0.788
		c1.465-0.474,2.909-0.994,4.284-1.686c0.397-0.2,0.733-0.208,1.129-0.002c1.349,0.702,2.742,1.26,4.26,1.528
		c2.309,0.408,4.523,0.089,6.547-0.985c1.325-0.703,2.374-0.841,3.731-0.047c1.936,1.133,4.139,1.445,6.374,1.229
		c1.381-0.134,2.718-0.544,3.886-1.3c1.092-0.705,2.022-0.707,3.182-0.053c1.65,0.932,3.52,1.302,5.42,1.229
		c1.868-0.071,3.702-0.496,5.341-1.383c1.055-0.571,1.87-0.303,2.766,0.172c2.223,1.176,4.616,1.545,7.083,1.327
		c1.68-0.147,3.294-0.676,4.762-1.51c0.8-0.454,1.456-0.433,2.267-0.053c3.539,1.661,7.142,1.723,10.704,0.112
		c0.983-0.444,1.75-0.389,2.718,0.029c3.609,1.556,7.247,1.513,10.845-0.11c0.612-0.276,1.166-0.416,1.87-0.127
		c2.229,0.915,4.584,1.228,6.98,1.066c1.932-0.13,3.823-0.531,5.659-1.159c0.314-0.107,0.608-0.15,0.922-0.011
		c2.253,1.004,4.632,1.598,7.022,2.152c0.056,0.013,0.104,0.056,0.155,0.084c-0.703,0.538-1.479,0.951-2.275,1.33
		c-0.784-0.409-1.664-0.524-2.497-0.777c-0.861-0.262-1.7-0.576-2.541-0.889c-0.255-0.095-0.483-0.137-0.751-0.05
		c-2.749,0.894-5.578,1.166-8.447,1.002c-1.45-0.083-2.903-0.319-4.253-0.867c-0.754-0.306-1.321,0.008-1.936,0.229
		c-1.319,0.476-2.667,0.754-4.063,0.909c-2.713,0.303-5.267-0.249-7.758-1.242c-0.248-0.1-0.447-0.084-0.685,0.018
		c-1.549,0.663-3.158,1.053-4.844,1.225c-2.607,0.266-5.071-0.226-7.466-1.197c-0.332-0.135-0.589-0.126-0.903,0.026
		c-2.24,1.087-4.609,1.666-7.101,1.624c-2.303-0.039-4.488-0.642-6.572-1.604c-0.319-0.146-0.563-0.154-0.895-0.019
		c-2.215,0.909-4.506,1.472-6.923,1.392c-1.916-0.064-3.753-0.485-5.482-1.303c-0.476-0.226-0.824-0.203-1.274,0.023
		c-2.008,1.007-4.139,1.574-6.394,1.509c-2.136-0.063-4.179-0.582-6.093-1.549c-0.364-0.184-0.659-0.237-1.058-0.048
		c-1.32,0.623-2.702,1.07-4.147,1.313c-2.209,0.372-4.366,0.142-6.479-0.555c-0.643-0.212-1.267-0.487-1.888-0.76
		c-0.315-0.139-0.598-0.055-0.868,0.064c-1.316,0.582-2.662,1.08-4.047,1.472c-0.153,0.044-0.383,0.034-0.407,0.285
		C16.586,46.709,15.796,46.327,15.088,45.801z"/>
	<path fill-rule="evenodd" clip-rule="evenodd" fill="#C9DDF3" d="M130.498,40.383c-0.484-0.248-0.97,0.001-1.444,0.033
		c-1.668,0.111-3.322,0.25-5.008,0.119c-2.06-0.159-4.066-0.502-6.038-1.094c-0.282-0.084-0.552,0.01-0.82,0.097
		c-2.438,0.791-4.949,1.091-7.494,0.938c-1.607-0.097-3.204-0.378-4.737-0.908c-0.459-0.159-0.876-0.156-1.338-0.005
		c-2.506,0.821-5.097,0.94-7.696,0.792c-1.47-0.084-2.913-0.428-4.324-0.863c-0.28-0.087-0.539-0.083-0.82-0.004
		c-2.742,0.77-5.553,0.885-8.369,0.747c-1.485-0.073-2.963-0.349-4.405-0.747c-0.342-0.095-0.657-0.068-0.997,0.021
		c-1.601,0.425-3.218,0.704-4.885,0.763c-2.862,0.101-5.671-0.212-8.458-0.831c-0.333-0.074-0.667-0.021-1.003,0.082
		c-2.391,0.73-4.85,0.985-7.332,0.833c-1.844-0.113-3.684-0.354-5.475-0.847c-0.391-0.107-0.743-0.099-1.108,0.042
		c-2.076,0.798-4.222,1.147-6.447,1.07c-1.948-0.066-3.834-0.452-5.68-1.04c-0.516-0.164-0.95-0.139-1.439,0.061
		c-2.317,0.939-4.743,1.261-7.219,1.073c-1.628-0.124-3.254-0.408-4.764-1.054c-0.963-0.412-1.796-0.051-2.667,0.173
		c-1.545,0.397-3.107,0.647-4.697,0.805c-1.141,0.113-2.275,0.075-3.413,0.092c-0.916,0.013-1.826-0.108-2.733-0.234
		c-0.502-0.61-0.802-1.32-1.084-2.104c1.013,0.171,1.96,0.368,2.918,0.483c1.546,0.188,3.094,0.231,4.657,0.1
		c2.016-0.169,3.989-0.508,5.925-1.079c0.2-0.059,0.356,0.026,0.52,0.084c2.521,0.891,5.123,1.229,7.78,1.061
		c1.693-0.108,3.351-0.473,4.968-0.997c0.28-0.092,0.539-0.07,0.82,0.01c1.979,0.563,3.975,0.972,6.053,1.027
		c2.198,0.059,4.326-0.193,6.393-0.932c0.428-0.153,0.827-0.198,1.281-0.071c2.645,0.743,5.358,0.851,8.077,0.718
		c1.55-0.076,3.091-0.352,4.582-0.788c0.659-0.193,1.256-0.118,1.881,0.012c1.698,0.354,3.401,0.606,5.142,0.7
		c2.713,0.146,5.366-0.147,7.994-0.769c0.704-0.167,1.331,0.159,1.98,0.286c3.48,0.68,6.939,0.646,10.367-0.275
		c0.715-0.191,1.343,0.006,1.993,0.163c1.34,0.323,2.694,0.491,4.072,0.589c2.574,0.182,5.083-0.172,7.572-0.753
		c0.333-0.077,0.615-0.038,0.926,0.059c1.394,0.431,2.813,0.684,4.273,0.816c2.746,0.252,5.406-0.171,8.035-0.867
		c0.755-0.2,1.426,0,2.114,0.151c1.992,0.44,4.006,0.604,6.04,0.737c1.587,0.104,3.15-0.079,4.725-0.05
		c0.417,0.007,0.822-0.146,1.249-0.12c0.285,0.019,0.437,0.064,0.266,0.378C130.967,39.503,130.733,39.943,130.498,40.383z"/>
	<path fill-rule="evenodd" clip-rule="evenodd" fill="#D9251D" d="M118.586,35.666c-1.52-0.051-3.407,0.127-5.28-0.072
		c-2.812-0.3-4.201-2.143-3.812-4.945c0.331-2.377,1.608-3.497,4.242-3.733c2.119-0.189,4.242-0.08,6.362-0.087
		c0.472-0.001,0.566-0.14,0.533-0.576c-0.082-1.082-0.515-1.641-1.559-1.926c-0.743-0.203-1.505-0.198-2.265-0.2
		c-1.942-0.004-3.885-0.017-5.826,0.01c-0.458,0.006-0.586-0.126-0.562-0.573c0.038-0.679,0.024-1.361,0.004-2.042
		c-0.01-0.32,0.105-0.409,0.413-0.407c2.903,0.019,5.806,0.009,8.708,0.045c0.842,0.011,1.661,0.223,2.438,0.571
		c1.86,0.837,2.672,2.378,2.714,4.312c0.065,3.062,0.015,6.126,0.036,9.188c0.003,0.413-0.175,0.441-0.501,0.439
		C122.471,35.659,120.708,35.666,118.586,35.666z"/>
	<path fill-rule="evenodd" clip-rule="evenodd" fill="#193782" d="M81.84,21.377c1.758,0.022,3.966,0.667,5.492,2.711
		c1.769,2.37,1.903,5.021,0.836,7.679c-1.031,2.564-3.155,3.761-5.834,4.057c-2.038,0.226-4.005,0.01-5.771-1.109
		c-2.323-1.471-3.229-3.7-3.117-6.351C73.632,23.985,76.558,21.367,81.84,21.377z"/>
	<path fill-rule="evenodd" clip-rule="evenodd" fill="#193783" d="M59.436,28.618c0-2.143,0.01-4.286-0.008-6.429
		c-0.004-0.412,0.046-0.588,0.536-0.582c2.383,0.032,4.766,0.018,7.149,0.019c0.744,0,1.479,0.098,2.201,0.263
		c2.113,0.485,3.235,1.784,3.314,4.188c0.102,3.081,0.033,6.167,0.045,9.251c0.001,0.249-0.063,0.355-0.335,0.353
		c-1.041-0.013-2.083-0.022-3.124,0.003c-0.417,0.01-0.378-0.229-0.378-0.497c0.003-2.563,0.004-5.127-0.001-7.69
		c-0.001-0.419,0-0.845-0.067-1.256c-0.172-1.059-0.55-1.416-1.628-1.482c-0.918-0.056-1.841-0.043-2.762-0.049
		c-1.117-0.007-1.117-0.002-1.117,1.131c0,3.084-0.011,6.168,0.012,9.252c0.003,0.479-0.127,0.615-0.6,0.595
		c-0.879-0.038-1.763-0.035-2.643-0.001c-0.453,0.017-0.613-0.086-0.606-0.581C59.453,32.943,59.436,30.78,59.436,28.618z"/>
	<path fill-rule="evenodd" clip-rule="evenodd" fill="#193782" d="M34.364,32.669c1.379,0,2.572,0,3.765,0
		c1.462,0,2.924,0.012,4.386-0.009c0.371-0.005,0.483,0.099,0.467,0.471c-0.03,0.7-0.023,1.402-0.002,2.103
		c0.01,0.327-0.071,0.451-0.428,0.45c-3.785-0.013-7.569,0-11.354-0.016c-0.764-0.003-1.501-0.195-1.884-0.948
		c-0.389-0.766-0.131-1.487,0.323-2.139c0.215-0.31,0.481-0.59,0.757-0.849c2.335-2.192,4.679-4.377,7.019-6.566
		c0.145-0.136,0.274-0.289,0.417-0.44c-0.108-0.169-0.284-0.078-0.423-0.078c-2.343-0.007-4.686-0.017-7.029,0.006
		c-0.431,0.004-0.542-0.122-0.521-0.536c0.034-0.699,0.025-1.402,0.002-2.102c-0.01-0.32,0.094-0.403,0.407-0.402
		c3.685,0.011,7.369,0.002,11.054,0.015c0.892,0.003,1.567,0.5,1.852,1.276c0.295,0.806,0.119,1.439-0.579,2.091
		c-2.531,2.365-5.063,4.73-7.594,7.095C34.831,32.249,34.658,32.402,34.364,32.669z"/>
	<path fill-rule="evenodd" clip-rule="evenodd" fill="#D9251D" d="M126.373,28.357c0-2.223,0.01-4.446-0.01-6.669
		c-0.004-0.423,0.067-0.599,0.547-0.58c1.06,0.04,2.122,0.021,3.184,0.007c0.302-0.004,0.417,0.07,0.416,0.397
		c-0.01,4.586-0.009,9.172,0,13.759c0,0.323-0.114,0.405-0.42,0.401c-1.041-0.016-2.083-0.029-3.124,0.004
		c-0.463,0.016-0.611-0.104-0.605-0.59C126.388,32.843,126.373,30.6,126.373,28.357z"/>
	<path fill-rule="evenodd" clip-rule="evenodd" fill="#193783" d="M51.123,36.423c-1.628-0.011-2.983-0.3-4.243-0.977
		c-3.551-1.906-4.524-6.57-2.035-9.741c1.047-1.334,2.379-2.369,3.65-3.467c0.833-0.72,1.669-1.437,2.422-2.242
		c0.921-0.985,1.731-2.05,2.198-3.331c0.173-0.476,0.464-0.595,0.924-0.481c0.458,0.113,0.371,0.46,0.333,0.763
		c-0.224,1.781,0.277,3.409,1.062,4.966c0.737,1.462,1.556,2.883,2.273,4.354c0.845,1.73,1.112,3.556,0.481,5.414
		c-0.917,2.701-2.971,4.055-5.658,4.6C52,36.389,51.461,36.444,51.123,36.423z"/>
	<path fill-rule="evenodd" clip-rule="evenodd" fill="#D9251D" d="M128.444,19.456c-0.54,0-1.079-0.014-1.618,0.005
		c-0.312,0.011-0.472-0.043-0.462-0.414c0.025-0.938,0.022-1.878,0.001-2.816c-0.008-0.335,0.127-0.394,0.422-0.39
		c1.099,0.014,2.197,0.019,3.296-0.002c0.349-0.007,0.435,0.114,0.428,0.443c-0.02,0.918-0.022,1.838,0.001,2.756
		c0.009,0.357-0.124,0.438-0.45,0.424C129.523,19.439,128.983,19.456,128.444,19.456z"/>
	<path fill-rule="evenodd" clip-rule="evenodd" fill="#193783" d="M52.501,12.373c-0.004,1.501-1.199,2.667-2.733,2.666
		c-1.53-0.001-2.734-1.19-2.718-2.682c0.017-1.511,1.205-2.67,2.735-2.668C51.313,9.691,52.506,10.87,52.501,12.373z"/>
	<path fill-rule="evenodd" clip-rule="evenodd" fill="#193783" d="M41.855,12.309c0-0.701,0.012-1.401-0.005-2.102
		c-0.008-0.308,0.084-0.433,0.406-0.416c0.62,0.032,1.243,0.008,1.86,0.057c1.321,0.104,2.174,1.034,2.224,2.381
		c0.053,1.432-0.731,2.463-2.081,2.627c-0.691,0.084-1.399,0.029-2.099,0.055c-0.302,0.011-0.308-0.162-0.306-0.381
		C41.858,13.79,41.855,13.05,41.855,12.309z"/>
	<path fill-rule="evenodd" clip-rule="evenodd" fill="#1A3883" d="M19.863,12.652c0,0.725-0.023,1.302,0.007,1.876
		c0.025,0.478-0.292,0.384-0.554,0.375c-0.248-0.008-0.579,0.135-0.573-0.355c0.018-1.459,0.009-2.918,0.004-4.378
		c-0.001-0.232,0.047-0.387,0.326-0.376c0.639,0.024,1.282,0,1.916,0.066c0.672,0.07,1.089,0.496,1.188,1.088
		c0.113,0.68-0.142,1.248-0.774,1.526c-0.305,0.134-0.289,0.228-0.14,0.463c0.393,0.62,0.766,1.252,1.154,1.892
		c-1.142,0.211-1.142,0.211-1.666-0.715c-0.236-0.417-0.473-0.833-0.71-1.249C20.022,12.835,19.995,12.811,19.863,12.652z"/>
	<path fill-rule="evenodd" clip-rule="evenodd" fill="#193783" d="M57.11,14.838c-0.877,0.252-1.425,0.005-1.739-0.817
		c-0.176-0.46-0.479-0.873-0.837-1.296c0,0.603-0.026,1.206,0.008,1.807c0.027,0.484-0.291,0.378-0.548,0.372
		c-0.247-0.006-0.569,0.136-0.561-0.36c0.024-1.462,0.012-2.924,0.005-4.387c-0.001-0.238,0.042-0.378,0.324-0.365
		c0.62,0.028,1.244,0.002,1.86,0.061c0.722,0.069,1.113,0.455,1.232,1.105c0.123,0.673-0.116,1.21-0.777,1.518
		c-0.334,0.155-0.234,0.28-0.108,0.484C56.347,13.572,56.715,14.187,57.11,14.838z"/>
	<path fill-rule="evenodd" clip-rule="evenodd" fill="#193783" d="M17.62,11.794c-0.044,0.55,0.07,1.211-0.084,1.866
		c-0.158,0.67-0.561,1.085-1.215,1.268c-0.571,0.159-1.151,0.159-1.722,0.03c-0.879-0.199-1.357-0.756-1.398-1.707
		c-0.045-1.039-0.01-2.081-0.026-3.121c-0.007-0.505,0.36-0.304,0.592-0.328c0.249-0.026,0.519-0.08,0.506,0.355
		c-0.027,0.899-0.022,1.801-0.001,2.701c0.02,0.794,0.37,1.179,1.036,1.208c0.763,0.034,1.187-0.344,1.214-1.151
		c0.029-0.859,0.041-1.722-0.001-2.58c-0.023-0.472,0.141-0.56,0.572-0.556c0.407,0.003,0.572,0.094,0.536,0.528
		C17.59,10.765,17.62,11.228,17.62,11.794z"/>
	<path fill-rule="evenodd" clip-rule="evenodd" fill="#193783" d="M41.304,14.908c-0.241,0-0.419-0.021-0.59,0.004
		c-0.489,0.073-0.797-0.088-0.886-0.604c-0.07-0.405-0.32-0.559-0.729-0.492c-0.175,0.029-0.362,0.026-0.539,0.001
		c-0.627-0.087-1.094,0.037-1.164,0.782c-0.026,0.278-0.225,0.331-0.474,0.312c-0.238-0.018-0.478-0.004-0.797-0.004
		c0.418-1.105,0.816-2.16,1.216-3.213c0.148-0.392,0.303-0.781,0.452-1.173c0.277-0.724,0.586-0.885,1.345-0.729
		c0.166,0.034,0.233,0.121,0.287,0.259C40.042,11.65,40.661,13.247,41.304,14.908z"/>
	<path fill-rule="evenodd" clip-rule="evenodd" fill="#1A3783" d="M57.79,12.358c0-0.7,0.011-1.4-0.005-2.1
		c-0.007-0.312,0.05-0.482,0.419-0.47c0.739,0.023,1.48,0.026,2.219,0c0.396-0.014,0.385,0.202,0.401,0.485
		c0.018,0.34-0.098,0.461-0.438,0.438c-0.378-0.026-0.76,0.008-1.14-0.009c-0.491-0.022-0.332,0.335-0.354,0.582
		c-0.023,0.266-0.046,0.53,0.374,0.492c0.337-0.03,0.68,0.004,1.02-0.009c0.324-0.013,0.553-0.017,0.549,0.448
		c-0.004,0.461-0.193,0.539-0.575,0.5c-0.218-0.022-0.444,0.024-0.659-0.009c-0.573-0.089-0.767,0.113-0.73,0.706
		c0.026,0.432,0.105,0.631,0.571,0.572c0.275-0.035,0.56,0.005,0.839-0.009c0.337-0.017,0.557,0.009,0.553,0.465
		c-0.003,0.427-0.17,0.487-0.528,0.475c-0.659-0.021-1.322-0.04-1.979,0.005c-0.481,0.033-0.566-0.158-0.545-0.582
		C57.813,13.68,57.79,13.019,57.79,12.358z"/>
	<path fill-rule="evenodd" clip-rule="evenodd" fill="#193783" d="M35.65,13.626c0.083,1.125-0.089,1.321-1.179,1.399
		c-2.034,0.146-3.445-1.325-3.069-3.208c0.431-2.162,2.739-2.476,4.126-1.873c0.283,0.123,0.29,0.329,0.109,1.057
		c-1.244-0.629-2.181-0.577-2.774,0.156c-0.511,0.63-0.508,1.793,0.006,2.406C33.441,14.247,34.433,14.277,35.65,13.626z"/>
	<path fill-rule="evenodd" clip-rule="evenodd" fill="#193783" d="M9.206,12.371c0-0.72,0.011-1.441-0.005-2.16
		c-0.007-0.294,0.053-0.445,0.39-0.42c0.438,0.032,0.88,0.005,1.318,0.038c0.983,0.074,1.487,0.553,1.533,1.425
		c0.047,0.892-0.44,1.586-1.377,1.638c-0.742,0.042-0.839,0.356-0.766,0.943c0.022,0.177-0.021,0.364,0.008,0.539
		c0.081,0.476-0.143,0.539-0.565,0.553c-0.472,0.016-0.568-0.145-0.545-0.576C9.232,13.692,9.206,13.031,9.206,12.371z"/>
	<path fill-rule="evenodd" clip-rule="evenodd" fill="#193783" d="M62.158,13.606c0.312,0.422,0.691,0.653,1.202,0.55
		c0.261-0.053,0.491-0.165,0.567-0.462c0.078-0.304-0.066-0.513-0.299-0.657c-0.407-0.251-0.84-0.461-1.244-0.717
		c-0.61-0.386-0.836-0.874-0.712-1.454c0.124-0.581,0.603-1.029,1.25-1.136c0.584-0.097,1.163-0.097,1.648,0.32
		c0.139,0.12,0.38,0.283,0.09,0.459c-0.184,0.112-0.254,0.62-0.628,0.233c-0.183-0.19-0.418-0.217-0.664-0.205
		c-0.279,0.014-0.508,0.114-0.612,0.396c-0.114,0.309,0.072,0.51,0.296,0.648c0.338,0.209,0.707,0.369,1.053,0.566
		c0.783,0.447,1.057,1.025,0.861,1.782c-0.167,0.646-0.792,1.083-1.609,1.1c-0.277,0.006-0.563-0.007-0.833-0.066
		c-0.357-0.079-0.741-0.244-0.853-0.593C61.563,14.029,61.986,13.881,62.158,13.606z"/>
	<path fill-rule="evenodd" clip-rule="evenodd" fill="#193783" d="M25.413,12.315c0-0.701,0.011-1.401-0.005-2.101
		c-0.007-0.293,0.054-0.436,0.392-0.425c0.759,0.022,1.521,0.022,2.28,0.001c0.373-0.011,0.359,0.204,0.355,0.459
		c-0.003,0.244,0.042,0.49-0.346,0.46c-0.338-0.025-0.683,0.022-1.019-0.012c-0.433-0.044-0.578,0.078-0.584,0.546
		c-0.007,0.487,0.174,0.576,0.587,0.531c0.257-0.028,0.52,0,0.779-0.007c0.322-0.007,0.608-0.068,0.6,0.456
		c-0.007,0.474-0.208,0.496-0.576,0.494c-1.369-0.006-1.356,0.004-1.379,1.401c-0.005,0.32,0.268,0.829-0.48,0.811
		c-0.503-0.013-0.649-0.137-0.615-0.634C25.447,13.638,25.412,12.976,25.413,12.315z"/>
	<path fill-rule="evenodd" clip-rule="evenodd" fill="#193783" d="M24.231,12.427c0,0.679-0.035,1.36,0.012,2.036
		c0.033,0.473-0.216,0.465-0.539,0.447c-0.281-0.016-0.588,0.102-0.576-0.41c0.032-1.438,0.029-2.876,0.002-4.314
		c-0.01-0.526,0.332-0.368,0.597-0.39c0.298-0.024,0.536-0.027,0.513,0.414C24.204,10.947,24.231,11.688,24.231,12.427z"/>
	<path fill-rule="evenodd" clip-rule="evenodd" fill="#1A3883" d="M29.29,12.31c0-0.698,0.025-1.397-0.009-2.094
		c-0.021-0.43,0.208-0.447,0.515-0.421c0.268,0.023,0.607-0.129,0.598,0.393c-0.025,1.456-0.022,2.912-0.002,4.368
		c0.007,0.5-0.329,0.333-0.569,0.348c-0.266,0.016-0.563,0.091-0.542-0.38C29.314,13.787,29.29,13.048,29.29,12.31z"/>
	<path fill-rule="evenodd" clip-rule="evenodd" fill="#FEFEFE" d="M98.974,24.363c-1.355,0-2.337-0.012-3.318,0.007
		c-0.345,0.007-0.449-0.112-0.445-0.448c0.015-1.382,0.012-2.764,0.001-4.146c-0.002-0.3,0.078-0.431,0.404-0.422
		c2.121,0.055,4.246-0.101,6.364,0.112c1.711,0.172,2.469,1.103,2.273,2.785c-0.144,1.238-0.826,1.838-2.293,2.008
		C100.843,24.388,99.721,24.368,98.974,24.363z"/>
	<path fill-rule="evenodd" clip-rule="evenodd" fill="#FEFEFE" d="M23.895,26.117c0.007,1.309-0.115,2.597-0.615,3.824
		c-0.667,1.636-1.912,2.502-3.633,2.75c-0.802,0.114-1.602,0.104-2.392-0.039c-1.699-0.308-2.89-1.27-3.415-2.921
		c-0.745-2.345-0.81-4.728-0.075-7.088c0.615-1.975,2.126-3.082,4.192-3.186c0.601-0.03,1.204-0.049,1.798,0.055
		c2.31,0.405,3.617,1.858,3.996,4.391C23.86,24.639,23.886,25.377,23.895,26.117z"/>
	<path fill-rule="evenodd" clip-rule="evenodd" fill="#FEFEFE" d="M117.565,32.683c-0.9,0-1.804,0.032-2.702-0.01
		c-0.884-0.041-1.255-0.411-1.311-1.175c-0.064-0.876,0.284-1.412,1.073-1.629c0.467-0.128,0.949-0.151,1.429-0.154
		c1.362-0.008,2.724,0.007,4.086-0.01c0.368-0.004,0.543,0.063,0.521,0.488c-0.036,0.699-0.027,1.402-0.002,2.102
		c0.013,0.355-0.124,0.436-0.45,0.429c-0.881-0.019-1.763-0.007-2.644-0.007C117.565,32.705,117.565,32.693,117.565,32.683z"/>
	<path fill-rule="evenodd" clip-rule="evenodd" fill="#FEFEFE" d="M77.427,28.647c0.041-0.396,0.05-0.799,0.128-1.188
		c0.404-2.042,1.763-3.139,3.74-3.044c1.938,0.092,3.173,1.315,3.42,3.348c0.104,0.846,0.074,1.676-0.143,2.496
		c-0.446,1.695-1.761,2.674-3.532,2.644c-1.772-0.029-3.041-1.053-3.438-2.765C77.488,29.646,77.452,29.15,77.427,28.647z"/>
	<path fill-rule="evenodd" clip-rule="evenodd" fill="#FEFEFE" d="M53.271,18.799c0.247,1.67,0.861,3.052,1.58,4.399
		c0.63,1.18,1.335,2.321,1.874,3.55c0.506,1.154,0.826,2.344,0.63,3.613c-0.419,2.729-2.55,4.681-5.393,4.966
		c-1.891,0.189-3.681-0.076-5.244-1.236c-2.31-1.715-2.833-5.179-1.162-7.524c0.503-0.705,1.108-1.318,1.753-1.889
		c1.034-0.916,2.086-1.811,3.125-2.721C51.473,21.047,52.399,20.033,53.271,18.799z"/>
	<path fill-rule="evenodd" clip-rule="evenodd" fill="#FEFEFE" d="M49.765,14.065c-0.939-0.005-1.618-0.736-1.603-1.726
		c0.015-0.984,0.717-1.697,1.655-1.681c0.898,0.016,1.569,0.741,1.572,1.702C51.393,13.349,50.705,14.071,49.765,14.065z"/>
	<path fill-rule="evenodd" clip-rule="evenodd" fill="#FEFEFE" d="M42.957,12.372c0-0.44-0.001-0.881,0.001-1.321
		c0.001-0.158-0.011-0.301,0.223-0.347c0.548-0.106,1.476,0.177,1.753,0.57c0.354,0.502,0.351,1.678-0.007,2.179
		c-0.289,0.404-1.2,0.666-1.762,0.539c-0.237-0.054-0.205-0.206-0.206-0.359C42.954,13.213,42.957,12.792,42.957,12.372z"/>
	<path fill-rule="evenodd" clip-rule="evenodd" fill="#FBFCFD" d="M19.826,11.274c0.166-0.197-0.226-0.667,0.362-0.628
		c0.445,0.029,0.908,0.035,0.918,0.663c0.008,0.464-0.274,0.666-0.917,0.664C19.586,11.972,19.996,11.497,19.826,11.274z"/>
	<path fill-rule="evenodd" clip-rule="evenodd" fill="#F8F9FB" d="M54.501,11.304c0.158-0.215-0.241-0.7,0.395-0.663
		c0.636,0.037,0.934,0.238,0.911,0.702c-0.029,0.597-0.492,0.591-0.911,0.629C54.273,12.028,54.652,11.529,54.501,11.304z"/>
	<path fill-rule="evenodd" clip-rule="evenodd" fill="#F9FAFB" d="M38.665,10.845c0.26,0.774,0.473,1.409,0.701,2.088
		c-0.454,0-0.875,0-1.376,0C38.204,12.27,38.415,11.616,38.665,10.845z"/>
	<path fill-rule="evenodd" clip-rule="evenodd" fill="#F7F8FA" d="M11.318,11.328c-0.04,0.276-0.056,0.555-0.375,0.691
		c-0.48,0.206-0.637,0.114-0.644-0.408c-0.001-0.12-0.028-0.248,0.005-0.357c0.068-0.223-0.231-0.607,0.25-0.65
		C11.014,10.564,11.314,10.866,11.318,11.328z"/>
	<path fill-rule="evenodd" clip-rule="evenodd" fill="#1A3783" d="M55.75,29.623c-0.028,1.724-0.807,2.988-2.375,3.708
		c-1.655,0.759-3.343,0.754-4.983-0.04c-2.098-1.017-2.832-3.808-1.543-5.757c0.637-0.963,1.52-1.693,2.376-2.446
		c0.947-0.832,1.901-1.654,2.845-2.49c0.257-0.228,0.459-0.399,0.687,0.041c0.754,1.453,1.541,2.889,2.287,4.346
		C55.463,27.807,55.771,28.673,55.75,29.623z"/>
	<path fill-rule="evenodd" clip-rule="evenodd" fill="#DDEFFB" d="M46.956,28.597c0.079-0.498,0.353-0.885,0.7-1.229
		c2.149-0.097,4.299-0.031,6.449-0.036c0.206,0,0.384,0.097,0.567,0.172c0.206,0.284,0.265,0.621,0.343,0.951
		c-0.037,0.349-0.327,0.319-0.544,0.322c-2.341,0.026-4.682,0.027-7.023,0.002C47.268,28.777,47.087,28.747,46.956,28.597z"/>
	<path fill-rule="evenodd" clip-rule="evenodd" fill="#C5E5F9" d="M49.587,33.167c-0.993-0.184-1.788-0.659-2.292-1.563
		c0.163-0.104,0.345-0.084,0.524-0.083c1.938,0.017,3.876-0.001,5.814,0.011c0.313,0.002,0.647-0.06,0.909,0.196
		c-0.534,0.845-1.361,1.224-2.29,1.441C51.364,33.231,50.476,33.226,49.587,33.167z"/>
	<path fill-rule="evenodd" clip-rule="evenodd" fill="#D3EBFA" d="M46.838,30.159c-0.062-0.28-0.063-0.561,0-0.841
		c0.267-0.238,0.597-0.189,0.911-0.19c2.029-0.005,4.058-0.005,6.087-0.001c0.439,0.001,0.875-0.019,1.308-0.092
		c0.135,0.378,0.13,0.755,0.002,1.134c-0.257,0.199-0.562,0.186-0.861,0.186c-2.198,0.003-4.396,0.004-6.594-0.001
		C47.396,30.353,47.085,30.386,46.838,30.159z"/>
	<path fill-rule="evenodd" clip-rule="evenodd" fill="#CEE8FA" d="M46.838,30.159c2.77,0.004,5.539,0.007,8.309,0.01
		c0.008,0.252-0.025,0.494-0.16,0.715c-0.167,0.291-0.455,0.303-0.736,0.305c-2.183,0.01-4.365,0.01-6.548,0
		c-0.281-0.002-0.57-0.011-0.735-0.305C46.866,30.653,46.797,30.416,46.838,30.159z"/>
	<path fill-rule="evenodd" clip-rule="evenodd" fill="#D8EDFA" d="M55.144,29.035c-0.073,0.392-0.385,0.279-0.623,0.28
		c-2.561,0.006-5.122,0.003-7.683,0.003c-0.025-0.251-0.014-0.496,0.118-0.721c2.462,0,4.924,0.002,7.386-0.004
		c0.228,0,0.487,0.093,0.673-0.138C55.157,28.626,55.138,28.833,55.144,29.035z"/>
	<path fill-rule="evenodd" clip-rule="evenodd" fill="#C9E6F9" d="M46.968,30.884c0.176,0.115,0.373,0.119,0.574,0.119
		c2.29-0.003,4.58-0.003,6.87,0c0.202,0,0.398-0.007,0.575-0.119c-0.064,0.326-0.206,0.611-0.445,0.845
		c-2.162-0.002-4.324-0.005-6.486-0.005c-0.26,0-0.521,0.014-0.761-0.119C47.107,31.4,47.008,31.155,46.968,30.884z"/>
	<path fill-rule="evenodd" clip-rule="evenodd" fill="#E5F2FC" d="M54.062,26.276c0.166,0.228,0.357,0.445,0.323,0.758
		c-0.223,0.224-0.513,0.19-0.786,0.191c-1.588,0.007-3.177,0.012-4.766-0.004c-0.289-0.003-0.653,0.102-0.802-0.306
		c0.181-0.293,0.458-0.485,0.723-0.69c1.551,0.048,3.102,0.014,4.653,0.02C53.626,26.245,53.845,26.237,54.062,26.276z"/>
	<path fill-rule="evenodd" clip-rule="evenodd" fill="#E9F4FC" d="M54.062,26.276c-0.134,0.208-0.348,0.155-0.54,0.156
		c-1.428,0.003-2.855,0.004-4.283-0.001c-0.183,0-0.417,0.081-0.485-0.206c0.238-0.215,0.476-0.43,0.714-0.644
		c1.405-0.081,2.81-0.1,4.215,0.006C53.861,25.788,53.986,26.019,54.062,26.276z"/>
	<path fill-rule="evenodd" clip-rule="evenodd" fill="#E1F1FB" d="M48.031,26.915c0.177,0.195,0.411,0.116,0.62,0.116
		c1.911,0.006,3.822,0.003,5.733,0.003c0.096,0.157,0.192,0.313,0.288,0.47c-2.176,0.004-4.352,0.008-6.528,0.01
		c-0.175,0-0.367,0.039-0.488-0.146C47.781,27.217,47.906,27.066,48.031,26.915z"/>
	<path fill-rule="evenodd" clip-rule="evenodd" fill="#EEF6FD" d="M53.683,25.587c-0.114,0.153-0.281,0.124-0.438,0.125
		c-1.114,0.001-2.229,0.001-3.343,0c-0.157,0-0.324,0.025-0.435-0.131c0.279-0.327,0.629-0.568,0.973-0.817
		c0.921-0.112,1.843-0.098,2.767-0.028C53.416,24.992,53.573,25.276,53.683,25.587z"/>
	<path fill-rule="evenodd" clip-rule="evenodd" fill="#F2F8FC" d="M53.207,24.736c-0.92,0.232-1.843,0.192-2.767,0.028
		c0.559-0.502,1.121-0.999,1.673-1.508c0.167-0.154,0.267-0.203,0.384,0.051C52.72,23.79,52.969,24.26,53.207,24.736z"/>
	<path fill-rule="evenodd" clip-rule="evenodd" fill="#BEE0F6" d="M49.587,33.167c0.889-0.181,1.777-0.181,2.665,0.003
		C51.363,33.462,50.475,33.452,49.587,33.167z"/>
</g>
</svg>
